<svg width="174" height="154" viewBox="0 0 174 154" fill="none" xmlns="http://www.w3.org/2000/svg">
<g id="Desktop - 6">
<g id="LIGHT">
<path id="Polygon 5" d="M97.5 73.1699C100.833 75.0944 100.833 79.9056 97.5 81.8301L56.25 105.646C52.9167 107.57 48.75 105.165 48.75 101.316L48.75 53.6843C48.75 49.8353 52.9167 47.4297 56.25 49.3542L97.5 73.1699Z" fill="#6FE9F1" 
fill-opacity="0.8"/>
</g>
<g id="DARK">
<path id="Polygon 2" d="M113.5 73.1699C116.833 75.0944 116.833 79.9056 113.5 81.8301L72.25 105.646C68.9167 107.57 64.75 105.165 64.75 101.316V53.6843C64.75 49.8353 68.9167 47.4297 72.25 49.3542L113.5 73.1699Z" fill="#626E6F" 
fill-opacity="0.8"/>
<path id="Polygon 6" d="M97.5 73.1699C100.833 75.0944 100.833 79.9056 97.5 81.8301L56.25 105.646C52.9167 107.57 48.75 105.165 48.75 101.316L48.75 53.6843C48.75 49.8353 52.9167 47.4297 56.25 49.3542L97.5 73.1699Z" fill="#0D6065" 
fill-opacity="0.8"/>
</g>
</g>
</svg>
